<?xml version="1.0" standalone="no"?>
<!DOCTYPE svg PUBLIC "-//W3C//DTD SVG 20010904//EN"
 "http://www.w3.org/TR/2001/REC-SVG-20010904/DTD/svg10.dtd">
<svg version="1.0" xmlns="http://www.w3.org/2000/svg"
 width="70.000000pt" height="70.000000pt" viewBox="0 0 70.000000 70.000000"
 preserveAspectRatio="xMidYMid meet">
<metadata>
Created by potrace 1.11, written by Peter Selinger 2001-2013
</metadata>
<g transform="translate(0.000000,70.000000) scale(0.100000,-0.100000)"
fill="#BB7722" stroke="none">
<path d="M0 540 l0 -160 350 0 350 0 0 160 0 160 -350 0 -350 0 0 -160z m259
53 c5 -21 13 -53 18 -71 8 -32 9 -31 26 37 17 66 20 71 46 71 26 0 30 -5 48
-67 20 -64 21 -66 28 -38 25 107 24 105 55 105 35 0 36 -3 11 -89 -11 -36 -25
-85 -31 -108 -9 -38 -14 -43 -39 -43 -26 0 -30 5 -47 65 -10 36 -21 65 -24 65
-3 0 -14 -29 -24 -65 -17 -60 -21 -65 -46 -65 -26 0 -28 5 -58 109 -18 61 -32
115 -32 120 0 6 13 11 30 11 25 0 30 -5 39 -37z"/>
<path d="M0 165 l0 -165 350 0 350 0 0 165 0 165 -350 0 -350 0 0 -165z m326
75 c21 -62 22 -64 32 -39 6 15 16 45 22 68 9 36 14 41 39 41 27 0 29 -4 59
-113 18 -63 32 -117 32 -120 0 -4 -13 -7 -30 -7 -31 0 -29 -3 -57 108 -8 33
-9 32 -28 -37 -18 -66 -21 -71 -47 -71 -26 0 -29 5 -44 60 -10 32 -20 57 -24
55 -4 -2 -12 -29 -19 -60 -12 -53 -13 -55 -46 -55 l-33 0 18 63 c10 34 26 88
35 120 15 54 18 58 42 55 23 -3 30 -12 49 -68z"/>
</g>
</svg>
