<?xml version="1.0" standalone="no"?>
<!DOCTYPE svg PUBLIC "-//W3C//DTD SVG 20010904//EN"
 "http://www.w3.org/TR/2001/REC-SVG-20010904/DTD/svg10.dtd">
<svg version="1.0" xmlns="http://www.w3.org/2000/svg"
 width="260.000000pt" height="260.000000pt" viewBox="0 0 260.000000 260.000000"
 preserveAspectRatio="xMidYMid meet">
<metadata>
Created by potrace 1.11, written by Peter Selinger 2001-2013
</metadata>
<g transform="translate(0.000000,260.000000) scale(0.100000,-0.100000)"
fill="#000000" stroke="none">
<path d="M0 1995 l0 -605 1300 0 1300 0 0 605 0 605 -1300 0 -1300 0 0 -605z
m936 190 c29 -115 61 -254 70 -307 10 -54 20 -98 23 -98 3 0 16 44 27 98 12
53 50 193 84 310 l63 212 92 0 92 0 66 -217 c37 -120 74 -254 82 -298 26 -130
29 -132 44 -35 5 36 36 174 68 307 l58 243 113 0 c61 0 112 -4 112 -8 0 -5
-59 -219 -130 -476 -72 -257 -130 -469 -130 -472 0 -2 -42 -4 -92 -4 l-93 0
-78 253 c-42 138 -84 285 -93 325 -9 41 -20 70 -24 65 -3 -4 -14 -44 -23 -88
-9 -44 -49 -187 -89 -317 l-73 -238 -92 0 c-51 0 -93 2 -93 5 0 3 -58 215
-130 472 -71 256 -130 470 -130 475 0 5 50 7 112 6 l112 -3 52 -210z"/>
<path d="M0 595 l0 -595 1300 0 1300 0 0 595 0 595 -1300 0 -1300 0 0 -595z
m1167 305 c41 -129 83 -275 94 -325 11 -49 22 -91 23 -93 2 -2 11 32 20 75 9
43 51 192 93 331 l76 252 92 0 91 0 128 -462 c71 -255 131 -471 134 -481 4
-16 -4 -17 -108 -15 l-113 3 -52 205 c-29 113 -61 251 -71 308 -10 56 -21 102
-25 102 -3 0 -13 -37 -23 -82 -9 -46 -47 -185 -84 -310 l-67 -228 -92 0 -91 0
-31 97 c-69 224 -111 372 -122 433 -16 89 -26 104 -34 55 -12 -75 -65 -320
-98 -450 l-33 -130 -112 -3 c-80 -2 -112 1 -112 9 0 9 189 699 246 897 l16 53
91 -3 90 -3 74 -235z"/>
</g>
</svg>
