<?xml version="1.0" standalone="no"?>
<!DOCTYPE svg PUBLIC "-//W3C//DTD SVG 20010904//EN"
 "http://www.w3.org/TR/2001/REC-SVG-20010904/DTD/svg10.dtd">
<svg version="1.0" xmlns="http://www.w3.org/2000/svg"
 width="260.000000pt" height="260.000000pt" viewBox="0 0 260.000000 260.000000"
 preserveAspectRatio="xMidYMid meet">
<metadata>
Created by potrace 1.11, written by Peter Selinger 2001-2013
</metadata>
<g transform="translate(0.000000,260.000000) scale(0.100000,-0.100000)"
fill="#000000" stroke="none">
<path d="M1143 1143 c15 -2 37 -2 50 0 12 2 0 4 -28 4 -27 0 -38 -2 -22 -4z"/>
<path d="M803 1133 c15 -2 37 -2 50 0 12 2 0 4 -28 4 -27 0 -38 -2 -22 -4z"/>
<path d="M493 1123 c9 -2 23 -2 30 0 6 3 -1 5 -18 5 -16 0 -22 -2 -12 -5z"/>
<path d="M1510 1106 c0 -2 8 -10 18 -17 15 -13 16 -12 3 4 -13 16 -21 21 -21
13z"/>
<path d="M935 1064 c-203 -6 -388 -13 -410 -13 -38 -1 -43 -5 -92 -75 -54 -76
-89 -174 -114 -319 -9 -57 -16 -72 -40 -89 -62 -46 -20 -114 83 -138 29 -6 60
-14 68 -16 10 -2 23 9 34 29 60 103 171 149 287 117 69 -19 159 -120 159 -180
0 -11 7 -20 15 -20 10 0 15 10 15 30 l0 30 375 0 375 0 0 -35 0 -35 -377 -3
-378 -2 383 -3 c299 -1 383 1 386 10 2 7 9 32 15 56 35 129 198 198 327 138
52 -24 110 -84 120 -123 12 -45 74 6 140 115 43 71 56 128 36 158 -12 19 -76
32 -341 70 -140 19 -262 41 -271 47 -9 7 -73 64 -143 127 -132 119 -172 141
-247 138 -19 0 -201 -7 -405 -14z m31 -91 l7 -48 16 48 c12 39 19 47 35 45 13
-2 24 -14 30 -35 12 -43 22 -42 30 2 6 28 11 35 31 35 l23 0 -22 -82 c-18 -67
-26 -84 -43 -86 -18 -3 -23 5 -34 48 l-13 52 -16 -49 c-12 -34 -23 -49 -37
-51 -17 -3 -23 6 -37 60 -8 35 -19 73 -22 86 -5 19 -2 22 19 22 23 0 27 -5 33
-47z m624 -153 c0 -20 -7 -20 -570 -20 -563 0 -570 0 -570 20 0 20 7 20 570
20 563 0 570 0 570 -20z m-589 -67 c18 -59 21 -60 36 -10 18 63 48 65 63 5 6
-24 15 -56 20 -72 15 -43 12 -56 -10 -56 -15 0 -22 11 -32 47 l-11 47 -14 -47
c-18 -63 -45 -64 -66 -4 l-14 42 -12 -42 c-9 -32 -17 -43 -31 -43 -22 0 -25
13 -10 56 5 16 14 48 20 72 14 56 43 58 61 5z"/>
<path d="M1610 1016 c0 -2 8 -10 18 -17 15 -13 16 -12 3 4 -13 16 -21 21 -21
13z"/>
<path d="M1720 916 c0 -2 8 -10 18 -17 15 -13 16 -12 3 4 -13 16 -21 21 -21
13z"/>
<path d="M609 445 c-59 -32 -81 -104 -50 -168 24 -51 65 -77 118 -77 101 0
166 111 113 197 -35 58 -121 81 -181 48z"/>
<path d="M1869 437 c-22 -15 -39 -38 -49 -65 -13 -37 -13 -47 0 -84 38 -110
194 -118 244 -14 20 42 20 67 2 111 -30 71 -130 97 -197 52z"/>
<path d="M210 425 c13 -14 26 -25 28 -25 3 0 -5 11 -18 25 -13 14 -26 25 -28
25 -3 0 5 -11 18 -25z"/>
<path d="M2289 393 l-34 -38 38 34 c20 19 37 36 37 38 0 8 -8 0 -41 -34z"/>
<path d="M2181 354 c0 -11 3 -14 6 -6 3 7 2 16 -1 19 -3 4 -6 -2 -5 -13z"/>
<path d="M432 335 c0 -16 2 -22 5 -12 2 9 2 23 0 30 -3 6 -5 -1 -5 -18z"/>
</g>
</svg>
